<svg clip-rule="evenodd" fill-rule="evenodd" stroke-linejoin="round" stroke-miterlimit="1.414" viewBox="0 0 560 400" xmlns="http://www.w3.org/2000/svg"><g fill-rule="nonzero"><path d="M233.53 175.128h-20.397a2.844 2.844 0 00-2.8 2.391l-8.249 52.3a1.707 1.707 0 001.679 1.962l9.74.001a2.844 2.844 0 002.8-2.394l2.225-14.107a2.841 2.841 0 012.798-2.395h6.456c13.436 0 21.19-6.501 23.215-19.385.912-5.636.038-10.065-2.6-13.166-2.9-3.406-8.041-5.207-14.868-5.207zm2.352 19.101c-1.115 7.319-6.707 7.319-12.114 7.319h-3.077l2.159-13.668a1.706 1.706 0 011.679-1.435h1.41c3.684 0 7.158 0 8.953 2.1 1.07 1.252 1.399 3.113.99 5.684zm58.615-.235h-9.768c-.832 0-1.547.61-1.679 1.434l-.432 2.732-.683-.99c-2.114-3.07-6.83-4.095-11.535-4.095-10.793 0-20.012 8.175-21.807 19.641-.933 5.72.394 11.19 3.638 15.004 2.977 3.508 7.235 4.969 12.302 4.969 8.697 0 13.52-5.592 13.52-5.592l-.436 2.714a1.708 1.708 0 001.676 1.968h8.798a2.844 2.844 0 002.8-2.394l5.279-33.43a1.7 1.7 0 00-1.673-1.962zm-13.615 19.009c-.942 5.58-5.37 9.325-11.02 9.325-2.835 0-5.102-.91-6.557-2.633-1.444-1.712-1.993-4.148-1.533-6.862.88-5.532 5.383-9.4 10.945-9.4 2.773 0 5.028.921 6.513 2.66 1.488 1.756 2.079 4.208 1.652 6.91zm65.632-19.01h-9.815c-.94 0-1.82.469-2.347 1.244l-13.537 19.94-5.738-19.161a2.849 2.849 0 00-2.72-2.022h-9.65c-.93 0-1.7.766-1.7 1.7 0 .187.033.372.092.548l10.811 31.726-10.164 14.348a1.708 1.708 0 00-.313.984c0 .933.767 1.7 1.7 1.7h9.803c.928 0 1.801-.453 2.33-1.217l32.644-47.12c.196-.284.304-.624.304-.97 0-.933-.767-1.7-1.7-1.7z" fill="#253b80"/><path d="M379.009 175.128H358.61a2.84 2.84 0 00-2.797 2.391l-8.25 52.3a1.706 1.706 0 001.676 1.962l10.468.001c.973 0 1.808-.715 1.957-1.676l2.341-14.825a2.841 2.841 0 012.797-2.395h6.454c13.438 0 21.19-6.501 23.217-19.385.916-5.636.036-10.065-2.603-13.166-2.896-3.406-8.035-5.207-14.861-5.207zm2.353 19.101c-1.112 7.319-6.704 7.319-12.114 7.319h-3.075l2.162-13.668a1.701 1.701 0 011.676-1.435h1.411c3.68 0 7.157 0 8.953 2.1 1.07 1.252 1.396 3.113.987 5.684zm58.611-.235h-9.76a1.696 1.696 0 00-1.677 1.434l-.432 2.732-.686-.99c-2.115-3.07-6.827-4.095-11.533-4.095-10.793 0-20.008 8.175-21.804 19.641-.93 5.72.391 11.19 3.636 15.004 2.982 3.508 7.235 4.969 12.302 4.969 8.696 0 13.519-5.592 13.519-5.592l-.436 2.714a1.707 1.707 0 001.679 1.968h8.798a2.841 2.841 0 002.797-2.394l5.282-33.43c.012-.086.021-.172.021-.259 0-.933-.77-1.702-1.703-1.702h-.003zm-13.614 19.009c-.937 5.58-5.371 9.325-11.02 9.325-2.83 0-5.102-.91-6.558-2.633-1.443-1.712-1.986-4.148-1.533-6.862.886-5.532 5.383-9.4 10.945-9.4 2.774 0 5.029.921 6.514 2.66 1.494 1.756 2.084 4.208 1.652 6.91zm25.129-36.441l-8.372 53.258a1.706 1.706 0 001.676 1.962h8.417a2.83 2.83 0 002.8-2.394l8.255-52.298a1.71 1.71 0 00-1.676-1.965h-9.424a1.706 1.706 0 00-1.676 1.437z" fill="#179bd7"/><path d="M117.384 241.946l1.56-9.907-3.475-.08H98.88l11.53-73.106a.946.946 0 01.936-.8h27.974c9.286 0 15.695 1.933 19.041 5.748 1.57 1.79 2.568 3.659 3.051 5.717.507 2.159.516 4.739.021 7.885l-.036.23v2.016l1.57.888a10.963 10.963 0 013.175 2.422c1.342 1.53 2.21 3.474 2.577 5.78.379 2.37.254 5.192-.367 8.386-.716 3.674-1.873 6.874-3.435 9.493a19.491 19.491 0 01-5.443 5.964c-2.076 1.474-4.542 2.592-7.33 3.308-2.703.703-5.783 1.058-9.162 1.058h-2.177a6.6 6.6 0 00-4.256 1.566 6.6 6.6 0 00-2.219 3.96l-.164.892-2.756 17.462-.125.64c-.033.204-.09.305-.173.374a.456.456 0 01-.286.104z" fill="#253b80"/><path d="M164.45 177.865c-.083.534-.179 1.08-.286 1.64-3.69 18.941-16.31 25.484-32.43 25.484h-8.207a3.986 3.986 0 00-3.94 3.376l-4.201 26.65-1.19 7.554a2.001 2.001 0 00-.027.328c0 1.151.948 2.1 2.1 2.1h14.556a3.503 3.503 0 003.46-2.953l.143-.74 2.74-17.392.176-.954a3.5 3.5 0 013.46-2.959h2.177c14.103 0 25.144-5.726 28.37-22.295 1.348-6.922.65-12.702-2.916-16.767a13.887 13.887 0 00-3.985-3.072z" fill="#179bd7"/><path d="M160.591 176.326a29.514 29.514 0 00-3.587-.796 45.558 45.558 0 00-7.236-.528h-21.925a3.506 3.506 0 00-3.457 2.959l-4.664 29.542-.134.862a3.998 3.998 0 013.94-3.376h8.207c16.119 0 28.74-6.546 32.429-25.483.11-.561.203-1.107.286-1.64-.972-.51-1.989-.94-3.033-1.28a36.1 36.1 0 00-.826-.26z" fill="#222d65"/><path d="M124.386 177.96a3.498 3.498 0 013.457-2.955h21.925c2.598 0 5.023.17 7.236.528 1.497.236 2.973.588 4.416 1.053 1.089.36 2.1.787 3.033 1.28 1.098-7-.009-11.766-3.793-16.081-4.172-4.751-11.703-6.785-21.339-6.785h-27.973a3.998 3.998 0 00-3.952 3.379l-11.652 73.857a2.415 2.415 0 002.37 2.78h17.272l4.336-27.513z" fill="#253b80"/></g></svg>